<?xml version="1.0" encoding="UTF-8" standalone="no"?>
<svg width="144px" height="60px" viewBox="0 0 144 60" version="1.1" xmlns="http://www.w3.org/2000/svg" xmlns:xlink="http://www.w3.org/1999/xlink" xmlns:sketch="http://www.bohemiancoding.com/sketch/ns">
    <!-- Generator: Sketch 3.2.2 (9983) - http://www.bohemiancoding.com/sketch -->
    <title>Untitled</title>
    <desc>Created with Sketch.</desc>
    <defs></defs>
    <g id="Page-1" stroke="none" stroke-width="1" fill="none" fill-rule="evenodd" sketch:type="MSPage">
        <rect id="Rectangle-1" stroke="#979797" fill="#D8D8D8" sketch:type="MSShapeGroup" x="1" y="2" width="142" height="57" rx="8"></rect>
        <path d="M20.672,29.68 C20.672,30.8320058 20.5000017,31.7559965 20.156,32.452 C19.8839986,33.0040028 19.5220023,33.4219986 19.07,33.706 C18.6179977,33.9900014 18.1440025,34.132 17.648,34.132 C17.3679986,34.132 17.0900014,34.0880004 16.814,34 C16.5379986,33.9119996 16.2600014,33.7560011 15.98,33.532 C15.6999986,33.3079989 15.4540011,33.0320016 15.242,32.704 C15.0299989,32.3759984 14.8580007,31.9500026 14.726,31.426 C14.5939993,30.9019974 14.528,30.3120033 14.528,29.656 C14.528,28.9999967 14.5959993,28.4120026 14.732,27.892 C14.8680007,27.3719974 15.0419989,26.9500016 15.254,26.626 C15.4660011,26.3019984 15.7119986,26.0320011 15.992,25.816 C16.2720014,25.5999989 16.5479986,25.4500004 16.82,25.366 C17.0920014,25.2819996 17.3679986,25.24 17.648,25.24 C18.1440025,25.24 18.6159978,25.3779986 19.064,25.654 C19.5120022,25.9300014 19.8719986,26.3359973 20.144,26.872 C20.4960018,27.5680035 20.672,28.5039941 20.672,29.68 L20.672,29.68 Z M17.6,26.152 C17.3599988,26.152 17.1220012,26.2099994 16.886,26.326 C16.6499988,26.4420006 16.4240011,26.6219988 16.208,26.866 C15.9919989,27.1100012 15.8180007,27.4619977 15.686,27.922 C15.5539993,28.3820023 15.488,28.915997 15.488,29.524 C15.488,30.1800033 15.5539993,30.7559975 15.686,31.252 C15.8180007,31.7480025 15.9939989,32.1299987 16.214,32.398 C16.4340011,32.6660013 16.6639988,32.8639994 16.904,32.992 C17.1440012,33.1200006 17.3959987,33.184 17.66,33.184 C17.9800016,33.184 18.2879985,33.088001 18.584,32.896 C18.8800015,32.703999 19.123999,32.408002 19.316,32.008 C19.5720013,31.4639973 19.7,30.7320046 19.7,29.812 C19.7,28.8439952 19.5880011,28.0800028 19.364,27.52 C19.171999,27.0559977 18.9160016,26.7120011 18.596,26.488 C18.2759984,26.2639989 17.9440017,26.152 17.6,26.152 L17.6,26.152 Z M22.196,27.652 L23.204,27.652 L23.204,31.192 C23.204,31.8080031 23.2799992,32.2639985 23.432,32.56 C23.5520006,32.8080012 23.7199989,32.9999993 23.936,33.136 C24.1520011,33.2720007 24.3879987,33.34 24.644,33.34 C24.9400015,33.34 25.2199987,33.2520009 25.484,33.076 C25.7480013,32.8999991 25.9559992,32.6760014 26.108,32.404 C26.2760008,32.0919984 26.36,31.6720026 26.36,31.144 L26.36,27.652 L27.368,27.652 L27.368,33.424 C27.368,33.6560012 27.3919998,33.8479992 27.44,34 L26.384,34 C26.3599999,33.8719994 26.352,33.708001 26.36,33.508 L26.372,33.028 C26.163999,33.3800018 25.8840018,33.655999 25.532,33.856 C25.1799982,34.056001 24.808002,34.156 24.416,34.156 C23.9919979,34.156 23.6020018,34.0420011 23.246,33.814 C22.8899982,33.5859989 22.6200009,33.268002 22.436,32.86 C22.2679992,32.4759981 22.184,31.9200036 22.184,31.192 L22.196,27.652 Z M31.136,25.948 L32.228,25.768 C32.236,25.8240003 32.238,25.8659999 32.234,25.894 C32.23,25.9220001 32.2160001,25.9619997 32.192,26.014 C32.1679999,26.0660003 32.152,26.1079998 32.144,26.14 C32.1199999,26.2920008 32.0880002,26.5799979 32.048,27.004 L31.988,27.64 L34.064,27.64 L34.064,28.468 L31.976,28.468 C31.8959996,29.2920041 31.856,30.1199958 31.856,30.952 C31.856,31.560003 31.8679999,31.967999 31.892,32.176 C31.9400002,32.5280018 32.063999,32.7859992 32.264,32.95 C32.464001,33.1140008 32.6959987,33.196 32.96,33.196 C33.3920022,33.196 33.8679974,33.0040019 34.388,32.62 L34.7,33.412 C34.0519968,33.8840024 33.3760035,34.12 32.672,34.12 C32.0239968,34.12 31.5400016,33.8960022 31.22,33.448 C31.1079994,33.2879992 31.0220003,33.0980011 30.962,32.878 C30.9019997,32.6579989 30.868,32.4720008 30.86,32.32 C30.852,32.1679992 30.848,31.9680012 30.848,31.72 C30.848,30.6319946 30.8919996,29.5480054 30.98,28.468 L29.492,28.468 L29.504,27.652 L31.016,27.652 L31.136,25.948 Z M36.548,24.748 L37.724,24.748 C37.7400001,24.8040003 37.7160003,24.8559998 37.652,24.904 C37.5959997,24.9440002 37.568,24.9959997 37.568,25.06 L37.568,28.624 C37.768001,28.2719982 38.0439982,27.996001 38.396,27.796 C38.7480018,27.595999 39.123998,27.496 39.524,27.496 C39.8440016,27.496 40.1539985,27.5619993 40.454,27.694 C40.7540015,27.8260007 41.0259988,28.0219987 41.27,28.282 C41.5140012,28.5420013 41.7099993,28.8839979 41.858,29.308 C42.0060007,29.7320021 42.08,30.2119973 42.08,30.748 C42.08,31.3000028 42.0040008,31.7979978 41.852,32.242 C41.6999992,32.6860022 41.4960013,33.0439986 41.24,33.316 C40.9839987,33.5880014 40.7000016,33.7959993 40.388,33.94 C40.0759984,34.0840007 39.7560016,34.156 39.428,34.156 C39.0439981,34.156 38.6860017,34.0680009 38.354,33.892 C38.0219983,33.7159991 37.752001,33.4720016 37.544,33.16 L37.196,34 L36.548,34 L36.548,24.748 Z M39.176,28.36 C38.8559984,28.36 38.5660013,28.4439992 38.306,28.612 C38.0459987,28.7800008 37.8560006,29.0039986 37.736,29.284 C37.6239994,29.5560014 37.568,29.9999969 37.568,30.616 C37.568,31.2560032 37.5799999,31.675999 37.604,31.876 C37.6440002,32.1560014 37.7259994,32.395999 37.85,32.596 C37.9740006,32.796001 38.1199992,32.9399996 38.288,33.028 C38.4560008,33.1160004 38.6099993,33.1759998 38.75,33.208 C38.8900007,33.2400002 39.0279993,33.256 39.164,33.256 C39.3080007,33.256 39.4539993,33.2400002 39.602,33.208 C39.7500007,33.1759998 39.9119991,33.1080005 40.088,33.004 C40.2640009,32.8999995 40.4199993,32.7680008 40.556,32.608 C40.6920007,32.4479992 40.8059995,32.2260014 40.898,31.942 C40.9900005,31.6579986 41.036,31.3280019 41.036,30.952 C41.036,30.5279979 40.9900005,30.1540016 40.898,29.83 C40.8059995,29.5059984 40.6920007,29.2540009 40.556,29.074 C40.4199993,28.8939991 40.2640009,28.7460006 40.088,28.63 C39.9119991,28.5139994 39.7520007,28.4400002 39.608,28.408 C39.4639993,28.3759998 39.3200007,28.36 39.176,28.36 L39.176,28.36 Z M49.316,30.856 C49.316,31.864005 49.0380028,32.667997 48.482,33.268 C47.9259972,33.868003 47.252004,34.168 46.46,34.168 C45.6439959,34.168 44.9440029,33.8560031 44.36,33.232 C43.7759971,32.6079969 43.484,31.8200048 43.484,30.868 C43.484,29.9079952 43.7779971,29.1080032 44.366,28.468 C44.9540029,27.8279968 45.6599959,27.508 46.484,27.508 C46.8520018,27.508 47.2039983,27.5799993 47.54,27.724 C47.8760017,27.8680007 48.1779987,28.0759986 48.446,28.348 C48.7140013,28.6200014 48.9259992,28.9719978 49.082,29.404 C49.2380008,29.8360022 49.316,30.3199973 49.316,30.856 L49.316,30.856 Z M46.424,28.36 C45.9039974,28.36 45.4600018,28.5779978 45.092,29.014 C44.7239982,29.4500022 44.54,30.0399963 44.54,30.784 C44.54,31.5440038 44.7299981,32.1539977 45.11,32.614 C45.4900019,33.0740023 45.9439974,33.304 46.472,33.304 C46.9680025,33.304 47.3979982,33.0920021 47.762,32.668 C48.1260018,32.2439979 48.308,31.6520038 48.308,30.892 C48.308,30.0759959 48.1200019,29.4500022 47.744,29.014 C47.3679981,28.5779978 46.9280025,28.36 46.424,28.36 L46.424,28.36 Z M50.996,27.652 L52.004,27.652 L52.004,31.192 C52.004,31.8080031 52.0799992,32.2639985 52.232,32.56 C52.3520006,32.8080012 52.5199989,32.9999993 52.736,33.136 C52.9520011,33.2720007 53.1879987,33.34 53.444,33.34 C53.7400015,33.34 54.0199987,33.2520009 54.284,33.076 C54.5480013,32.8999991 54.7559992,32.6760014 54.908,32.404 C55.0760008,32.0919984 55.16,31.6720026 55.16,31.144 L55.16,27.652 L56.168,27.652 L56.168,33.424 C56.168,33.6560012 56.1919998,33.8479992 56.24,34 L55.184,34 C55.1599999,33.8719994 55.152,33.708001 55.16,33.508 L55.172,33.028 C54.963999,33.3800018 54.6840018,33.655999 54.332,33.856 C53.9799982,34.056001 53.608002,34.156 53.216,34.156 C52.7919979,34.156 52.4020018,34.0420011 52.046,33.814 C51.6899982,33.5859989 51.4200009,33.268002 51.236,32.86 C51.0679992,32.4759981 50.984,31.9200036 50.984,31.192 L50.996,27.652 Z M58.268,34 L58.268,27.652 L59.288,27.652 L59.288,28.768 C59.5360012,28.3919981 59.8459981,28.0860012 60.218,27.85 C60.5900019,27.6139988 60.9839979,27.496 61.4,27.496 C61.7680018,27.496 62.1019985,27.593999 62.402,27.79 C62.7020015,27.986001 62.9319992,28.2599982 63.092,28.612 C63.2440008,28.9640018 63.32,29.4759966 63.32,30.148 L63.32,34 L62.336,34 L62.336,30.172 C62.336,29.971999 62.332,29.8100006 62.324,29.686 C62.316,29.5619994 62.2840003,29.4100009 62.228,29.23 C62.1719997,29.0499991 62.0920005,28.8960006 61.988,28.768 C61.7639989,28.4959986 61.4760018,28.36 61.124,28.36 C60.8279985,28.36 60.5400014,28.455999 60.26,28.648 C59.9799986,28.840001 59.7600008,29.039999 59.6,29.248 C59.391999,29.5280014 59.288,29.8919978 59.288,30.34 L59.288,34 L58.268,34 Z M69.68,28.576 L69.68,24.748 L70.748,24.748 C70.748,24.8040003 70.7240002,24.8719996 70.676,24.952 C70.6359998,25.0160003 70.616,25.0799997 70.616,25.144 L70.628,33.412 C70.628,33.6520012 70.6479998,33.8479992 70.688,34 L69.692,34 C69.6519998,33.8799994 69.632,33.724001 69.632,33.532 L69.632,32.98 C69.431999,33.3400018 69.1560018,33.623999 68.804,33.832 C68.4519982,34.040001 68.072002,34.144 67.664,34.144 C67.3519984,34.144 67.0500015,34.0760007 66.758,33.94 C66.4659985,33.8039993 66.1980012,33.6040013 65.954,33.34 C65.7099988,33.0759987 65.5140007,32.7220022 65.366,32.278 C65.2179993,31.8339978 65.144,31.3320028 65.144,30.772 C65.144,30.1959971 65.2239992,29.6860022 65.384,29.242 C65.5440008,28.7979978 65.7579987,28.4540012 66.026,28.21 C66.2940013,27.9659988 66.5799985,27.7840006 66.884,27.664 C67.1880015,27.5439994 67.4999984,27.484 67.82,27.484 C68.2520022,27.484 68.6319984,27.581999 68.96,27.778 C69.2880016,27.974001 69.5279992,28.2399983 69.68,28.576 L69.68,28.576 Z M67.868,28.3 C67.667999,28.3 67.472001,28.3379996 67.28,28.414 C67.087999,28.4900004 66.9020009,28.6099992 66.722,28.774 C66.5419991,28.9380008 66.3960006,29.1779984 66.284,29.494 C66.1719994,29.8100016 66.116,30.1799979 66.116,30.604 C66.116,31.1000025 66.1739994,31.5299982 66.29,31.894 C66.4060006,32.2580018 66.5579991,32.5339991 66.746,32.722 C66.9340009,32.9100009 67.123999,33.0459996 67.316,33.13 C67.508001,33.2140004 67.703999,33.256 67.904,33.256 C68.2480017,33.256 68.5639986,33.1480011 68.852,32.932 C69.1400014,32.7159989 69.3439994,32.4240018 69.464,32.056 C69.5520004,31.7759986 69.596,31.3880025 69.596,30.892 C69.596,30.2599968 69.5600004,29.8080014 69.488,29.536 C69.3759994,29.1119979 69.1620016,28.800001 68.846,28.6 C68.5299984,28.399999 68.2040017,28.3 67.868,28.3 L67.868,28.3 Z M79.676,25.336 L80.756,25.336 C80.764,25.3600001 80.768,25.3799999 80.768,25.396 C80.768,25.4280002 80.7540001,25.4679998 80.726,25.516 C80.6979999,25.5640002 80.684,25.6159997 80.684,25.672 L80.684,29.044 L84.08,29.044 L84.08,25.336 L85.136,25.336 C85.144,25.3520001 85.148,25.3719999 85.148,25.396 C85.148,25.4280002 85.1320002,25.4659998 85.1,25.51 C85.0679998,25.5540002 85.052,25.5999998 85.052,25.648 L85.052,34.012 L84.068,34.012 L84.068,29.872 L80.684,29.872 L80.684,34 L79.676,34 L79.676,25.336 Z M87.38,28.396 C87.9560029,27.803997 88.7119953,27.508 89.648,27.508 C90.1440025,27.508 90.5839981,27.5979991 90.968,27.778 C91.3520019,27.9580009 91.647999,28.2199983 91.856,28.564 C91.9920007,28.7800011 92.0779998,29.0039988 92.114,29.236 C92.1500002,29.4680012 92.168,29.7439984 92.168,30.064 L92.168,34 L91.22,34 L91.22,33.304 C90.5239965,33.8720028 89.7640041,34.156 88.94,34.156 C88.2999968,34.156 87.784002,33.9780018 87.392,33.622 C86.999998,33.2659982 86.804,32.8440024 86.804,32.356 C86.804,31.9799981 86.9259988,31.6280016 87.17,31.3 C87.4140012,30.9719984 87.7759976,30.7200009 88.256,30.544 C88.5040012,30.4479995 88.8059982,30.3780002 89.162,30.334 C89.5180018,30.2899998 89.8019989,30.266 90.014,30.262 C90.2260011,30.258 90.5559978,30.256 91.004,30.256 L91.208,30.256 L91.208,30.028 C91.208,29.5239975 91.1400007,29.1600011 91.004,28.936 C90.7559988,28.527998 90.3200031,28.324 89.696,28.324 C88.9279962,28.324 88.3200022,28.5599976 87.872,29.032 L87.38,28.396 Z M91.244,31.024 L91.016,31.024 C90.7279986,31.016 90.3700021,31.016 89.942,31.024 C89.5139979,31.032 89.1760012,31.0639997 88.928,31.12 C88.5519981,31.2080004 88.2720009,31.3619989 88.088,31.582 C87.9039991,31.8020011 87.812,32.0399987 87.812,32.296 C87.812,32.5920015 87.9319988,32.8479989 88.172,33.064 C88.4120012,33.2800011 88.735998,33.388 89.144,33.388 C89.5040018,33.388 89.8299985,33.3080008 90.122,33.148 C90.4140015,32.9879992 90.6439992,32.8200009 90.812,32.644 C90.9480007,32.4999993 91.0499997,32.3480008 91.118,32.188 C91.1860003,32.0279992 91.224,31.9020005 91.232,31.81 C91.24,31.7179995 91.244,31.5960008 91.244,31.444 L91.244,31.024 Z M94.268,34 L94.268,27.652 L95.288,27.652 L95.288,28.768 C95.5360012,28.3919981 95.8459981,28.0860012 96.218,27.85 C96.5900019,27.6139988 96.9839979,27.496 97.4,27.496 C97.7680018,27.496 98.1019985,27.593999 98.402,27.79 C98.7020015,27.986001 98.9319992,28.2599982 99.092,28.612 C99.2440008,28.9640018 99.32,29.4759966 99.32,30.148 L99.32,34 L98.336,34 L98.336,30.172 C98.336,29.971999 98.332,29.8100006 98.324,29.686 C98.316,29.5619994 98.2840003,29.4100009 98.228,29.23 C98.1719997,29.0499991 98.0920005,28.8960006 97.988,28.768 C97.7639989,28.4959986 97.4760018,28.36 97.124,28.36 C96.8279985,28.36 96.5400014,28.455999 96.26,28.648 C95.9799986,28.840001 95.7600008,29.039999 95.6,29.248 C95.391999,29.5280014 95.288,29.8919978 95.288,30.34 L95.288,34 L94.268,34 Z M105.68,28.576 L105.68,24.748 L106.748,24.748 C106.748,24.8040003 106.724,24.8719996 106.676,24.952 C106.636,25.0160003 106.616,25.0799997 106.616,25.144 L106.628,33.412 C106.628,33.6520012 106.648,33.8479992 106.688,34 L105.692,34 C105.652,33.8799994 105.632,33.724001 105.632,33.532 L105.632,32.98 C105.431999,33.3400018 105.156002,33.623999 104.804,33.832 C104.451998,34.040001 104.072002,34.144 103.664,34.144 C103.351998,34.144 103.050001,34.0760007 102.758,33.94 C102.465999,33.8039993 102.198001,33.6040013 101.954,33.34 C101.709999,33.0759987 101.514001,32.7220022 101.366,32.278 C101.217999,31.8339978 101.144,31.3320028 101.144,30.772 C101.144,30.1959971 101.223999,29.6860022 101.384,29.242 C101.544001,28.7979978 101.757999,28.4540012 102.026,28.21 C102.294001,27.9659988 102.579998,27.7840006 102.884,27.664 C103.188002,27.5439994 103.499998,27.484 103.82,27.484 C104.252002,27.484 104.631998,27.581999 104.96,27.778 C105.288002,27.974001 105.527999,28.2399983 105.68,28.576 L105.68,28.576 Z M103.868,28.3 C103.667999,28.3 103.472001,28.3379996 103.28,28.414 C103.087999,28.4900004 102.902001,28.6099992 102.722,28.774 C102.541999,28.9380008 102.396001,29.1779984 102.284,29.494 C102.171999,29.8100016 102.116,30.1799979 102.116,30.604 C102.116,31.1000025 102.173999,31.5299982 102.29,31.894 C102.406001,32.2580018 102.557999,32.5339991 102.746,32.722 C102.934001,32.9100009 103.123999,33.0459996 103.316,33.13 C103.508001,33.2140004 103.703999,33.256 103.904,33.256 C104.248002,33.256 104.563999,33.1480011 104.852,32.932 C105.140001,32.7159989 105.343999,32.4240018 105.464,32.056 C105.552,31.7759986 105.596,31.3880025 105.596,30.892 C105.596,30.2599968 105.56,29.8080014 105.488,29.536 C105.375999,29.1119979 105.162002,28.800001 104.846,28.6 C104.529998,28.399999 104.204002,28.3 103.868,28.3 L103.868,28.3 Z M108.896,24.76 L111.704,24.76 L111.704,33.196 L113.576,33.196 L113.576,34 L108.812,34 L108.812,33.196 L110.696,33.196 L110.696,25.564 L108.896,25.564 L108.896,24.76 Z M118.52,27.496 C118.792001,27.496 119.055999,27.5339996 119.312,27.61 C119.568001,27.6860004 119.813999,27.8079992 120.05,27.976 C120.286001,28.1440008 120.491999,28.3799985 120.668,28.684 C120.844001,28.9880015 120.964,29.343998 121.028,29.752 C121.1,30.144002 121.116,30.5479979 121.076,30.964 L116.564,30.964 C116.588,31.4120022 116.671999,31.7999984 116.816,32.128 C116.960001,32.4560016 117.141999,32.7019992 117.362,32.866 C117.582001,33.0300008 117.803999,33.1499996 118.028,33.226 C118.252001,33.3020004 118.483999,33.34 118.724,33.34 C119.396003,33.34 119.943998,33.1000024 120.368,32.62 L120.92,33.16 C120.375997,33.8160033 119.616005,34.144 118.64,34.144 C117.751996,34.144 117.022003,33.8600028 116.45,33.292 C115.877997,32.7239972 115.592,31.9240052 115.592,30.892 C115.592,30.3319972 115.671999,29.8320022 115.832,29.392 C115.992001,28.9519978 116.209999,28.5960014 116.486,28.324 C116.762001,28.0519986 117.071998,27.8460007 117.416,27.706 C117.760002,27.5659993 118.127998,27.496 118.52,27.496 L118.52,27.496 Z M116.6,30.196 L120.092,30.196 C120.156,29.6759974 120.026002,29.2240019 119.702,28.84 C119.377998,28.4559981 118.960003,28.264 118.448,28.264 C118.263999,28.264 118.080001,28.2959997 117.896,28.36 C117.711999,28.4240003 117.528001,28.5259993 117.344,28.666 C117.159999,28.8060007 117.002001,29.0079987 116.87,29.272 C116.737999,29.5360013 116.648,29.8439982 116.6,30.196 L116.6,30.196 Z M123.5,27.652 L124.544,27.652 L124.508,28.876 C124.708001,28.4359978 125.017998,28.0960012 125.438,27.856 C125.858002,27.6159988 126.311998,27.496 126.8,27.496 C127.480003,27.496 128.043998,27.7279977 128.492,28.192 L128.024,29.152 C127.984,29.1119998 127.938,29.0540004 127.886,28.978 C127.834,28.9019996 127.8,28.8520001 127.784,28.828 C127.599999,28.5959988 127.224003,28.48 126.656,28.48 C125.951996,28.48 125.384002,28.8239966 124.952,29.512 C124.647998,29.9920024 124.496,30.5039973 124.496,31.048 L124.508,34.012 L123.5,34.012 L123.5,27.652 Z" id="Outbound-Handler" fill="#000000" sketch:type="MSShapeGroup"></path>
    </g>
</svg>